<?xml version="1.0" encoding="UTF-8"?>
<svg width="1289px" height="599px" viewBox="0 0 1289 599" version="1.1" xmlns="http://www.w3.org/2000/svg" xmlns:xlink="http://www.w3.org/1999/xlink">
    <!-- Generator: Sketch 49.2 (51160) - http://www.bohemiancoding.com/sketch -->
    <title>bg</title>
    <desc>Created with Sketch.</desc>
    <defs></defs>
    <g id="Page-1" stroke="none" stroke-width="1" fill="none" fill-rule="evenodd">
        <g id="网站更新提示页" transform="translate(-109.000000, -126.000000)">
            <g id="bg" transform="translate(109.000000, 126.000000)">
                <polygon id="Fill-1" fill="#DFEEFC" points="443.83285 498.582829 400.31678 541.118335 896.166386 542.11917 939.182271 499.083247"></polygon>
                <polygon id="Fill-2" fill="#C4DDF9" points="388.312397 460.550933 891.664774 460.550933 891.664774 178.315344 388.312397 178.315344"></polygon>
                <polygon id="Fill-3" fill="#DBEDFB" points="891.401476 178.315494 387.812013 178.315494 406.582444 162.302128 910.171408 162.302128"></polygon>
                <polygon id="Fill-4" fill="#FFFFFF" points="405.56877 422.769396 877.909694 422.769396 877.909694 194.57892 405.56877 194.57892"></polygon>
                <path d="M404.5684,423.770231 L878.910064,423.770231 L878.910064,193.578084 L404.5684,193.578084 L404.5684,423.770231 Z M406.569139,421.768561 L876.909325,421.768561 L876.909325,195.579755 L406.569139,195.579755 L406.569139,421.768561 Z" id="Fill-5" fill="#95BEF9"></path>
                <polygon id="Fill-6" fill="#A0C8F9" points="891.164539 177.815077 891.664724 460.551083 910.671742 441.034793 910.671742 161.80171"></polygon>
                <polyline id="Fill-7" fill="#A0C8F9" points="620.735076 460.551083 610.981474 507.340139 595.225656 523.103297 707.26703 523.103297 698.388751 507.340139 687.259642 460.551083"></polyline>
                <path d="M687.006148,460.551083 L698.135258,507.340139 C698.135258,507.340139 716.517046,506.089095 716.391999,505.338468 C716.266953,504.587842 707.513721,460.551083 707.513721,460.551083 L687.006148,460.551083 Z" id="Fill-8" fill="#7DB7F2"></path>
                <polygon id="Fill-10" fill="#6BB4EF" points="725.895509 518.01555 706.138213 522.769519 697.760119 507.006361 716.016861 505.00469"></polygon>
                <path d="M995.369969,522.85504 C995.369969,526.124269 974.445743,528.774481 948.634711,528.774481 C922.82318,528.774481 901.898953,526.124269 901.898953,522.85504 C901.898953,519.585811 922.82318,516.935098 948.634711,516.935098 C974.445743,516.935098 995.369969,519.585811 995.369969,522.85504" id="Fill-12" fill="#DFEEFC"></path>
                <polygon id="Fill-14" fill="#77A7FC" points="944.917288 515.100517 921.908792 515.100517 920.208664 510.09584 943.217161 510.09584"></polygon>
                <polygon id="Fill-16" fill="#77A7FC" points="941.34667 504.591295 918.338173 504.591295 916.638046 499.587118 939.646542 499.587118"></polygon>
                <polygon id="Fill-18" fill="#77A7FC" points="937.775501 494.082022 914.767005 494.082022 913.066877 489.077845 936.075373 489.077845"></polygon>
                <polygon id="Fill-20" fill="#77A7FC" points="934.204883 483.57325 911.196386 483.57325 909.496258 478.569073 932.504755 478.569073"></polygon>
                <polygon id="Fill-22" fill="#77A7FC" points="930.634214 473.063978 907.625718 473.063978 905.92559 468.059801 928.934086 468.059801"></polygon>
                <polygon id="Fill-24" fill="#77A7FC" points="927.063545 462.555206 904.055049 462.555206 902.354921 457.550529 925.363418 457.550529"></polygon>
                <polygon id="Fill-26" fill="#77A7FC" points="923.492877 452.045934 900.48438 452.045934 898.784253 447.041757 921.792749 447.041757"></polygon>
                <polygon id="Fill-28" fill="#77A7FC" points="919.921758 441.536712 896.913262 441.536712 895.213134 436.532534 918.22163 436.532534"></polygon>
                <polygon id="Fill-30" fill="#77A7FC" points="916.35109 431.02794 893.342593 431.02794 891.642465 426.023762 914.650962 426.023762"></polygon>
                <polygon id="Fill-32" fill="#77A7FC" points="912.780421 420.518667 889.771925 420.518667 888.071797 415.51449 911.080293 415.51449"></polygon>
                <polygon id="Fill-34" fill="#77A7FC" points="909.209803 410.009895 886.201306 410.009895 884.501178 405.005218 907.509675 405.005218"></polygon>
                <polygon id="Fill-36" fill="#77A7FC" points="905.639134 399.500623 882.630637 399.500623 880.93051 394.496446 903.939006 394.496446"></polygon>
                <polygon id="Fill-38" fill="#77A7FC" points="902.068015 388.991601 879.059519 388.991601 877.359391 383.987424 900.367887 383.987424"></polygon>
                <polygon id="Fill-40" fill="#77A7FC" points="924.459084 522.606783 919.457237 522.606783 870.657216 378.982896 875.659063 378.982896"></polygon>
                <polygon id="Fill-42" fill="#77A7FC" points="952.469427 522.606783 947.46758 522.606783 898.66756 378.982896 903.669407 378.982896"></polygon>
                <polygon id="Fill-44" fill="#CFE3FF" points="961.894208 333.069421 969.431491 338.860755 958.464441 353.148682 962.034259 355.891471 973.001809 341.603545 978.952507 346.175361 985.959594 337.047242 968.901795 323.941302"></polygon>
                <path d="M962.690902,355.463364 L961.190348,358.46587 C959.689794,357.965453 958.689424,357.465035 957.18887,356.964617 L956.188501,351.96044 L959.689794,351.96044 L962.690902,355.463364 Z" id="Fill-46" fill="#5A8CFB"></path>
                <path d="M960.690163,358.966288 L955.688316,375.480072 L941.182959,386.98968 L934.680558,415.013072 L919.675017,415.013072 L917.674278,392.994692 L881.660979,383.987174 L883.661718,380.48425 L918.424555,384.237382 L937.431574,382.235712 L951.436746,371.72694 L956.688685,357.465035 C958.189239,357.965453 959.189609,358.46587 960.690163,358.966288" id="Fill-48" fill="#5A8CFB"></path>
                <path d="M920.925529,364.220674 L918.424605,359.716915 L923.426452,356.714408 L936.931439,364.721092 C936.931439,364.721092 936.431255,370.225686 935.93107,370.225686 C935.52442,370.225686 925.85635,366.254872 922.258521,364.771133 C921.432216,364.430349 920.925529,364.220674 920.925529,364.220674" id="Fill-50" fill="#77A7FC"></path>
                <polygon id="Fill-52" fill="#A0C8F9" points="921.925898 376.230699 922.426083 364.721092 935.014231 370.225686 934.930701 379.733623 928.428299 381.735294"></polygon>
                <polygon id="Fill-54" fill="#A0C8F9" points="934.680608 415.013072 934.180424 480.067374 928.678392 478.566121 919.675067 431.026438"></polygon>
                <polygon id="Fill-56" fill="#B5D3F7" points="919.675067 415.013072 934.680608 415.013072 917.674328 435.530198 915.173405 460.050666 909.171188 459.550248 906.17008 435.530198"></polygon>
                <polygon id="Fill-58" fill="#B5D3F7" points="913.672851 463.55359 913.672851 460.050666 910.089027 459.626812 910.171558 460.551083 906.17008 460.050666 906.17008 460.551083"></polygon>
                <polygon id="Fill-60" fill="#A0C8F9" points="933.180054 483.320089 933.180054 479.817165 929.596231 479.393311 929.678761 480.317583 925.677284 479.817165 925.677284 480.317583"></polygon>
                <path d="M1053.18477,388.057721 C1054.04559,387.478238 1081.81834,380.984817 1081.81834,380.984817 L1100.32518,367.22333 L1092.07213,358.215812 L1059.31003,358.215812 L1053.18477,388.057721 Z" id="Fill-62" fill="#DFEEFC"></path>
                <polygon id="Fill-64" fill="#CFE3FF" points="1012.54291 391.493289 1048.05603 391.493289 1048.05603 250.375495 1012.54291 250.375495"></polygon>
                <polygon id="Fill-66" fill="#A0C8F9" points="1067.41808 378.473571 1048.13645 391.456909 1048.13645 250.339114 1067.14347 237.828671"></polygon>
                <polygon id="Fill-67" fill="#DBEDFB" points="1048.05593 250.375645 1012.54281 250.375645 1031.63036 237.828671 1067.14347 237.828671"></polygon>
                <path d="M1202.93619,271.191702 C1203.79701,270.612218 1226.01071,263.769006 1226.01071,263.769006 L1238.01515,250.007519 L1229.7621,241 L1197,241 L1202.93619,271.191702 Z" id="Fill-68" fill="#DFEEFC"></path>
                <polygon id="Fill-69" fill="#CFE3FF" points="1168 271.41457 1203.51311 271.41457 1203.51311 230 1168 230"></polygon>
                <polygon id="Fill-70" fill="#A0C8F9" points="1222.28112 257.941675 1203 270.925013 1203 229.510443 1222.00702 217"></polygon>
                <polygon id="Fill-71" fill="#DBEDFB" points="1203.51311 229.546973 1168 229.546973 1187.08805 217 1222.60116 217"></polygon>
                <path d="M1113.16982,518.451014 C1113.83557,518.00264 1131.01741,512.709221 1131.01741,512.709221 L1140.30234,502.065336 L1133.91848,495.098521 L1108.57812,495.098521 L1113.16982,518.451014 Z" id="Fill-72" fill="#DFEEFC"></path>
                <polygon id="Fill-73" fill="#CFE3FF" points="1085.70143 518.450764 1113.16957 518.450764 1113.16957 486.417525 1085.70143 486.417525"></polygon>
                <polygon id="Fill-74" fill="#A0C8F9" points="1128.14605 508.380558 1113.23254 518.42244 1113.23254 486.389701 1127.93397 476.713124"></polygon>
                <polygon id="Fill-75" fill="#DBEDFB" points="1113.16982 486.417925 1085.70168 486.417925 1100.46563 476.712824 1127.93427 476.712824"></polygon>
                <path d="M52.3194644,517.053082 C53.0907492,516.534149 72.9945992,510.40203 72.9945992,510.40203 L83.7510713,498.071237 L76.3563406,490 L47,490 L52.3194644,517.053082 Z" id="Fill-76" fill="#DFEEFC"></path>
                <polygon id="Fill-77" fill="#CFE3FF" points="12 517.108475 52.3724086 517.108475 52.3724086 480 12 480"></polygon>
                <polygon id="Fill-78" fill="#A0C8F9" points="70.2768799 505.685622 53 517.319333 53 480.210358 70.0312893 469"></polygon>
                <polygon id="Fill-79" fill="#DBEDFB" points="52.3724086 480.242885 12 480.242885 29.1033158 469 69.4757244 469"></polygon>
                <polygon id="Fill-80" fill="#CFE3FF" points="19.824625 274.480774 50.8100672 274.480774 50.8100672 246 19.824625 246"></polygon>
                <polygon id="Fill-81" fill="#A0C8F9" points="5.82462505 266.155002 19.0840214 275.083454 19.0840214 246.603181 6.01319468 238"></polygon>
                <polygon id="Fill-82" fill="#DBEDFB" points="18.9509723 246.628202 49.9364145 246.628202 36.8100672 238 5.82462505 238"></polygon>
                <polygon id="Fill-83" fill="#CFE3FF" points="299.919756 255.642391 343.452832 255.642391 343.452832 215.62799 299.919756 215.62799"></polygon>
                <polygon id="Fill-84" fill="#A0C8F9" points="357.7178 235.63509 343.531061 255.607262 343.531061 215.592861 357.7178 199.833706"></polygon>
                <polygon id="Fill-85" fill="#DBEDFB" points="343.452732 215.62789 299.919656 215.62789 316.535792 199.833706 357.718 199.833706"></polygon>
                <path d="M334.730061,207.308445 C334.730061,208.22421 332.071079,208.966329 328.790367,208.966329 C325.509656,208.966329 322.850674,208.22421 322.850674,207.308445 C322.850674,206.392681 325.509656,205.650562 328.790367,205.650562 C332.071079,205.650562 334.730061,206.392681 334.730061,207.308445" id="Fill-86" fill="#BADDFF"></path>
                <path d="M1288.53683,426.245147 C1288.53683,428.087685 1276.07073,429.580932 1260.69305,429.580932 C1245.31587,429.580932 1232.84977,428.087685 1232.84977,426.245147 C1232.84977,424.402109 1245.31587,422.908862 1260.69305,422.908862 C1276.07073,422.908862 1288.53683,424.402109 1288.53683,426.245147" id="Fill-90" fill="#DDECFC"></path>
                <polygon id="Fill-91" fill="#DDECFC" points="1247.73026 428.830455 1252.9822 428.830455 1252.9822 398.930497 1247.73026 398.930497"></polygon>
                <polygon id="Fill-92" fill="#C7E0FA" points="1258.37139 425.131868 1252.9824 428.830455 1252.9824 398.930497 1258.37139 395.23191"></polygon>
                <polygon id="Fill-93" fill="#DDECFC" points="1238.1017 362.27475 1253.60743 366.027882 1265.23672 378.538325 1266.98737 400.4316 1235.47573 398.930347 1230.72398 383.792711"></polygon>
                <polygon id="Fill-94" fill="#C7E0FC" points="1253.60743 366.027882 1265.23672 378.538325 1266.98737 400.4316 1277.46124 393.557862 1276.61593 373.721805 1265.81144 360.710944"></polygon>
                <polygon id="Fill-95" fill="#E4F2FE" points="1265.81604 360.716799 1249.69359 357.234893 1238.10631 362.280605 1253.61203 366.033737"></polygon>
                <path d="M291.419067,400.053082 C292.190352,399.533648 312.094202,393.40203 312.094202,393.40203 L322.850674,381.071237 L315.455943,373 L286.099603,373 L291.419067,400.053082 Z" id="Fill-96" fill="#DFEEFC"></path>
                <polygon id="Fill-97" fill="#CFE3FF" points="188.099603 400.689787 291.750879 400.689787 291.750879 368 188.099603 368"></polygon>
                <polygon id="Fill-98" fill="#B5D3F7" points="308.376483 388.90847 291.099603 400.54218 291.099603 367.851893 308.295953 356"></polygon>
                <polygon id="Fill-99" fill="#DBEDFB" points="291.750879 367.884921 188.099603 367.884921 205.36798 356 309.019255 356"></polygon>
                <polygon id="Fill-100" fill="#CFE3FF" points="153.099603 400.625495 188.612717 400.625495 188.612717 300 153.099603 300"></polygon>
                <polygon id="Fill-101" fill="#B5D3F7" points="205.376483 356.434789 188.099603 368.0685 188.099603 300.209857 205.130892 289"></polygon>
                <polygon id="Fill-102" fill="#DBEDFB" points="187.509309 300.242384 153.099603 300.242384 170.202418 289 204.612625 289"></polygon>
                <polygon id="Fill-103" fill="#DFEEFC" points="247.332676 442.105609 201.099603 442.105609 224.079589 427 270.312661 427"></polygon>
                <polygon id="Fill-104" fill="#A0C8F9" points="327.95661 207.308546 329.790787 207.308546 329.790787 129.107769 327.95661 129.107769"></polygon>
                <path d="M470.306976,40.553551 L335.687264,101.676072 C332.009906,98.7556338 326.946537,97.9014207 322.431869,99.8925828 C315.884452,102.779493 312.971876,110.554983 315.925467,117.259079 C318.879057,123.963175 326.580902,127.057758 333.128319,124.170348 C336.992746,122.465925 339.589705,119.058081 340.462528,115.173338 L477.364082,56.5714216 L470.306976,40.553551 Z" id="Fill-105" fill="#DBEDFB"></path>
                <path d="M470.306976,44.4835815 L335.687264,105.606102 C332.009906,102.685664 326.946537,101.831451 322.431869,103.822613 C315.884452,106.709523 312.971876,114.485013 315.925467,121.18911 C318.879057,127.893206 326.580902,130.987789 333.128319,128.100379 C336.992746,126.395956 339.589705,122.988111 340.462528,119.103369 L477.364082,60.501452 L470.306976,44.4835815 Z" id="Fill-106" fill="#A0C8F9"></path>
                <polygon id="Fill-107" fill="#A0C8F9" points="619.897866 161.301292 508.356677 0.000150125313 490.350028 23.0193648 579.049282 161.301292"></polygon>
                <polygon id="Fill-108" fill="#C4DDF9" points="528.030692 161.301292 454.670102 36.6972821 490.350278 23.0193648 579.049532 161.301292"></polygon>
                <polygon id="Fill-109" fill="#DBEDFB" points="475.677859 10.0083042 508.356427 -5.00417711e-05 490.349777 23.0191647 454.670102 36.697082"></polygon>
                <polygon id="Fill-110" fill="#5A8CFB" points="458.171395 85.0709608 456.504279 92.5772265 456.504279 116.263498 472.51019 116.263498 474.67749 103.252638 480.846268 93.4114228 473.343497 83.2359291"></polygon>
                <path d="M472.718517,116.263698 C472.718517,116.263698 457.462883,140.200179 457.212791,140.200179 C456.962698,140.200179 454.711867,161.301292 454.711867,161.301292 L447.959374,161.301292 L446.959004,138.782495 L456.712606,116.263698 L472.718517,116.263698 Z" id="Fill-111" fill="#B5D3F7"></path>
                <polygon id="Fill-112" fill="#A0C8F9" points="473.010374 116.263698 473.010374 148.540641 477.011852 161.301292 469.842705 161.301292 463.00668 148.290432 460.339195 135.029362"></polygon>
                <path d="M458.171395,85.2378501 L456.504279,92.7441158 C456.504279,92.7441158 439.164376,82.0687048 438.830753,81.7349261 C438.49763,81.4011475 423.65865,70.3088886 423.65865,70.3088886 L425.82595,66.7223948 L441.915392,77.8982236 L458.171395,85.2378501 Z" id="Fill-113" fill="#77A7FC"></path>
                <path d="M480.846518,93.4113728 C480.846518,93.4113728 472.50994,107.423069 467.841716,111.092632 L453.296345,119.046271 L450.835436,115.763531 L463.840238,105.087619 L475.177925,88.2405566 L477.345225,88.2405566 L480.846518,93.4113728 Z" id="Fill-114" fill="#77A7FC"></path>
                <path d="M471.468055,74.4163171 C471.530578,74.6039738 471.030393,79.8583597 471.030393,79.8583597 C471.030393,79.8583597 466.153592,81.3596129 465.9035,81.2345084 C465.653408,81.109404 459.588668,76.1052269 459.588668,76.1052269 L459.588668,65.033485 L464.653038,71.6014675 L471.468055,74.4163171 Z" id="Fill-115" fill="#A0C8F9"></path>
                <polygon id="Fill-116" fill="#77A7FC" points="472.468424 69.5997967 473.093655 75.1043915 464.965654 72.2269896 456.816644 62.1560832 463.089961 59.1535769"></polygon>
                <path d="M1104.37391,29.185188 C1102.88836,29.185188 1101.43283,29.3353133 1100.03231,29.6205514 C1100.03081,29.6210518 1100.02931,29.6210518 1100.02831,29.6215522 C1100.03031,29.4764311 1100.03881,29.3323108 1100.03881,29.1866892 C1100.03881,15.8290393 1089.21531,5 1075.86338,5 C1065.40752,5 1056.50323,11.6420443 1053.13199,20.9383041 C1050.19641,17.0335447 1045.52668,14.5079365 1040.26674,14.5079365 C1031.52901,14.5079365 1024.42339,21.4777544 1024.1888,30.1625038 C1024.1878,30.1620033 1024.1863,30.1615029 1024.1843,30.1610025 C1022.48367,29.6906099 1020.69301,29.4353968 1018.84233,29.4353968 C1007.88328,29.4353968 999,38.3228154 999,49.2869674 C999,51.7840518 999.46017,54.1760485 1000.30548,56.3778864 L1029.34621,56.3778864 L1037.37967,56.3778864 L1083.40617,56.3778864 L1104.37391,56.3778864 L1125.34165,56.3778864 L1158.51891,56.3778864 C1158.51891,56.3778864 1158.20629,53.1026525 1125.78932,48.286132 C1124.17973,37.8984612 1115.20391,29.185188 1104.37391,29.185188" id="Fill-117" fill="#DBEDFB"></path>
                <path d="M102.565604,87.3599866 C101.683778,87.3599866 100.819459,87.449061 99.987652,87.6187026 C99.9871518,87.6187026 99.9861515,87.619203 99.9851511,87.619203 C99.9866516,87.5331312 99.9916535,87.4475597 99.9916535,87.3609875 C99.9916535,79.4298672 93.5652804,73 85.6373528,73 C79.4290602,73 74.1421079,76.943792 72.1408689,82.4633993 C70.3977252,80.1454645 67.6252013,78.6457126 64.502048,78.6457126 C59.3141322,78.6457126 55.0955744,82.7836667 54.9560229,87.9404712 C54.9550225,87.9399708 54.9545223,87.9394703 54.953522,87.9394703 C53.9436491,87.6602373 52.8802564,87.5086107 51.7813506,87.5086107 C45.2744477,87.5086107 40,92.7855155 40,99.2954495 C40,100.778187 40.2731008,102.198373 40.7752863,103.505464 L58.0181537,103.505464 L62.787915,103.505464 L90.1160066,103.505464 L102.565604,103.505464 L115.015201,103.505464 L134.713976,103.505464 C134.713976,103.505464 134.528407,101.56084 115.2813,98.7014536 C114.324946,92.5338053 108.995979,87.3599866 102.565604,87.3599866" id="Fill-118" fill="#DBEDFB"></path>
                <path d="M740.055965,92.6526376 C739.463211,92.6526376 738.882224,92.7125124 738.323092,92.8265438 C738.322756,92.8265438 738.322083,92.8268802 738.321411,92.8268802 C738.32242,92.7690235 738.325782,92.7115033 738.325782,92.6533103 C738.325782,87.3220916 734.006039,83 728.676966,83 C724.503815,83 720.949979,85.650977 719.604766,89.3612012 C718.433043,87.8031089 716.56938,86.7949908 714.470028,86.7949908 C710.982764,86.7949908 708.147092,89.5764816 708.053287,93.0428334 C708.052615,93.042497 708.052278,93.0421606 708.051606,93.0421606 C707.37278,92.854463 706.657978,92.7525411 705.919305,92.7525411 C701.54543,92.7525411 698,96.2996231 698,100.675535 C698,101.672216 698.183576,102.62685 698.52114,103.505464 L710.11162,103.505464 L713.317806,103.505464 L731.687472,103.505464 L740.055965,103.505464 L748.424458,103.505464 L761.665775,103.505464 C761.665775,103.505464 761.541038,102.198308 748.603327,100.276257 C747.960476,96.1304261 744.378398,92.6526376 740.055965,92.6526376" id="Fill-118-Copy" fill="#DBEDFB"></path>
                <path d="M56,366.019024 C56,369.343299 43.6484389,372.037548 28.4123125,372.037548 C13.1761862,372.037548 0.824625046,369.343299 0.824625046,366.019024 C0.824625046,362.694749 13.1761862,360 28.4123125,360 C43.6484389,360 56,362.694749 56,366.019024" id="Fill-119" fill="#DFEEFC"></path>
                <polygon id="Fill-120" fill="#77A7FC" points="41.8349161 275 41.8349161 289.020703 38 288.122454 38 275"></polygon>
                <polygon id="Fill-121" fill="#77A7FC" points="36.5013454 323.864272 27.8316439 328.266446 26.8247721 327.987713 16.1603339 325.031746 14.8268415 302.179671 8.82462505 288.732446 11.8257333 287 17.6608881 298.00919 24.3303509 300.845057 30.4991289 298.509607 38.0018995 287.834196 41.8368157 288.732446 35.1143332 299.97483"></polygon>
                <polygon id="Fill-122" fill="#77A7FC" points="11.1673003 271 14.5020318 273.335449 12.0011082 287.347145 9 289.079091"></polygon>
                <polygon id="Fill-123" fill="#77A7FC" points="19.7294592 290.674576 29.4955656 286.504595 32.1630506 283.668728 28.7142771 281 18.824625 287.338291"></polygon>
                <polygon id="Fill-124" fill="#B5D3F7" points="19.824625 296.342133 24.9220074 298.177165 29.7572929 294.187334 29.5907314 286 19.824625 290.170481"></polygon>
                <polygon id="Fill-125" fill="#A0C8F9" points="28.824625 327.455384 36.8405851 342.515455 31.6721766 358.362183 29.171253 360.864272 34.7863266 365.034252 35.5065925 363.532999 33.1727307 359.863436 35.1734695 360.447424 42.5927093 341.931968 34.6732848 324"></polygon>
                <path d="M21.8639663,367.715155 L15.8617499,368.132003 C15.8617499,368.132003 15.778219,366.71432 15.8617499,366.63075 C15.9452807,366.547681 19.279512,365.463276 19.279512,365.463276 L18.8443513,363.962023 L17.2787731,363.461605 L17.2362574,325 L26.4426571,327.55163 L22.3741547,352.861256 L22.1140587,363.044757 L21.8639663,367.715155 Z" id="Fill-126" fill="#A0C8F9"></path>
                <polygon id="Fill-127" fill="#77A7FC" points="298.529193 469.933915 298.529193 475.938928 279.021989 481.94394 279.021989 474.687884 284.524021 475.938928"></polygon>
                <path d="M296.028269,540.054947 L302.905809,554.879822 L300.90507,584.77978 L299.467039,584.77978 L299.467039,586.281033 L301.655347,586.281033 L303.53104,588.032495 L294.02753,588.032495 L294.02753,586.281033 L295.903223,586.030824 L295.903223,584.77978 L294.02753,556.381075 L288.650545,547.748869 C288.650545,547.748869 284.502513,578.899872 281.501405,590.659688 L279.334605,590.659688 L279.334605,592.286046 L282.523282,592.286046 L283.89879,594.412821 L273.269865,594.412821 L273.269865,592.911568 L275.020511,592.911568 L275.39565,591.160106 L274.020142,590.909897 C274.020142,590.909897 277.02125,559.63379 276.896204,559.258477 C276.771158,558.883163 275.145558,540.054947 275.145558,540.054947 L296.028269,540.054947 Z" id="Fill-128" fill="#B5D3F7"></path>
                <path d="M296.403408,486.948118 C296.403408,486.948118 289.525868,491.076564 289.150729,490.951459 C288.775591,490.826355 283.023467,488.449371 283.023467,488.449371 L283.852273,480.572796 L297.770913,476.287719 L296.403408,486.948118 Z" id="Fill-129" fill="#A0C8F9"></path>
                <path d="M328.456994,591.410315 C328.456994,595.601813 311.400196,599.00015 290.359426,599.00015 C269.319156,599.00015 252.262357,595.601813 252.262357,591.410315 C252.262357,587.218816 269.319156,583.820479 290.359426,583.820479 C311.400196,583.820479 328.456994,587.218816 328.456994,591.410315" id="Fill-130" fill="#DFEEFC"></path>
                <polygon id="Fill-131" fill="#8ABAFF" points="274.895465 539.429425 296.278362 540.054947 298.529193 502.148306 291.901745 492.890578 282.398236 492.890578 269.768572 510.655407"></polygon>
                <polygon id="Fill-132" fill="#CFE3FF" points="223.001302 546.62293 392.563917 511.343481 387.812163 499.083247 225.002041 536.364366"></polygon>
                <path d="M223.001302,546.62293 L226.252503,550.626271 L395.815118,516.597867 C395.815118,516.597867 393.314195,511.59369 392.313825,511.59369 C391.313456,511.59369 223.001302,546.62293 223.001302,546.62293" id="Fill-133" fill="#A0C8F9"></path>
                <polygon id="Fill-134" fill="#8FC4F7" points="387.812163 499.083247 392.313825 511.59369 395.815118 516.597867 395.688571 513.281599 390.396617 502.085753"></polygon>
                <path d="M293.652392,497.394337 C293.152207,497.644546 272.894726,514.283435 272.894726,514.283435 L280.147405,542.181722 C280.147405,542.181722 275.645742,540.555365 275.39565,540.054947 C275.145558,539.554529 265.517002,510.905615 265.517002,510.905615 L282.398236,493.015682 L291.526607,493.015682 L293.652392,497.394337 Z" id="Fill-135" fill="#6CA7FC"></path>
                <circle id="Oval-15" fill="#5A8CFB" cx="879" cy="380" r="4"></circle>
            </g>
        </g>
    </g>
</svg>